<?xml version="1.0" standalone="no"?>
<!DOCTYPE svg PUBLIC "-//W3C//DTD SVG 20010904//EN"
 "http://www.w3.org/TR/2001/REC-SVG-20010904/DTD/svg10.dtd">
<svg version="1.0" xmlns="http://www.w3.org/2000/svg"
 width="953.000000pt" height="933.000000pt" viewBox="0 0 953.000000 933.000000"
 preserveAspectRatio="xMidYMid meet">

<g transform="translate(0.000000,933.000000) scale(0.100000,-0.100000)"
fill="#000000" stroke="none">
<path d="M4540 8339 c-208 -12 -559 -63 -609 -89 -9 -4 -81 -25 -161 -46 -143
-37 -325 -100 -470 -164 -100 -43 -389 -191 -396 -201 -3 -5 -35 -25 -72 -46
-103 -57 -264 -173 -407 -293 -414 -347 -735 -748 -962 -1200 -115 -231 -175
-381 -234 -585 -22 -77 -44 -149 -49 -160 -15 -32 -58 -255 -82 -424 -19 -133
-22 -203 -22 -476 -1 -317 5 -411 40 -615 9 -47 20 -111 25 -144 5 -32 18 -84
29 -115 10 -31 31 -99 45 -152 52 -196 122 -381 214 -567 39 -79 71 -146 71
-149 0 -26 232 -379 341 -517 44 -55 90 -114 102 -131 12 -16 46 -52 75 -80
29 -27 52 -55 52 -61 0 -10 58 -67 225 -223 33 -31 96 -83 139 -116 44 -33 96
-73 116 -90 45 -37 175 -127 295 -204 211 -136 627 -322 851 -381 44 -11 86
-25 96 -30 39 -22 254 -67 453 -95 394 -55 850 -43 1252 35 138 26 220 47 260
66 17 7 36 14 42 14 14 0 321 102 376 125 22 9 130 62 240 117 495 248 925
602 1273 1049 171 219 277 388 400 639 102 209 178 405 227 585 15 55 30 105
35 110 11 15 67 301 86 445 22 165 30 625 15 802 -19 209 -68 508 -95 573 -7
17 -25 75 -41 130 -24 90 -60 198 -116 353 -30 81 -228 465 -298 577 -285 453
-740 904 -1200 1190 -147 91 -442 238 -610 304 -71 28 -196 69 -278 91 -81 23
-177 50 -213 60 -148 43 -374 74 -640 90 -182 11 -223 11 -420 -1z m678 -263
c163 -22 343 -59 461 -95 53 -16 123 -37 156 -47 53 -14 308 -110 360 -134 16
-8 206 -107 338 -177 58 -31 285 -188 372 -258 342 -273 672 -652 842 -964
107 -196 166 -310 183 -351 48 -118 90 -230 105 -280 9 -30 32 -100 51 -156
37 -112 84 -334 110 -524 25 -179 26 -692 1 -876 -38 -286 -98 -522 -216 -844
-47 -131 -224 -471 -314 -605 -90 -135 -91 -137 -184 -255 -236 -301 -602
-629 -908 -813 -149 -90 -402 -216 -520 -259 -515 -189 -791 -241 -1280 -242
-337 0 -586 28 -865 100 -195 49 -566 185 -665 244 -16 10 -79 43 -140 75
-449 234 -904 652 -1221 1120 -110 164 -268 463 -325 616 -42 114 -136 401
-154 469 -95 377 -119 899 -59 1330 24 174 85 449 105 475 4 6 14 37 23 71 36
138 120 342 220 533 47 90 86 167 86 171 0 14 206 309 275 395 179 220 378
417 585 580 325 255 743 469 1130 579 52 15 120 36 150 46 87 30 359 75 560
94 112 10 620 -2 738 -18z"/>
<path d="M5055 7788 c-2 -7 -5 -26 -7 -43 -3 -28 -5 -30 -41 -27 -68 6 -117
-61 -117 -158 0 -44 5 -56 29 -81 31 -31 59 -36 92 -18 16 8 25 7 38 -5 29
-27 83 -20 115 13 17 18 26 36 23 45 -8 20 -26 21 -33 1 -4 -8 -13 -15 -21
-15 -13 0 -14 13 -7 98 5 53 8 120 9 147 l0 50 -38 3 c-24 2 -39 -1 -42 -10z
m-22 -158 c-3 -66 -18 -115 -36 -118 -12 -2 -17 3 -19 20 -4 75 15 141 41 136
11 -3 16 -13 14 -38z"/>
<path d="M3960 7727 c-26 -13 -29 -30 -16 -78 7 -23 4 -27 -19 -33 -15 -4 -38
-19 -51 -33 -43 -46 -29 -169 25 -217 30 -27 84 -26 113 1 16 15 35 21 62 20
32 -1 44 5 68 32 20 22 28 41 26 59 -4 35 -26 39 -38 8 -5 -14 -16 -26 -24
-26 -15 0 -24 24 -72 195 -16 58 -30 85 -43 85 -3 0 -17 -6 -31 -13z m18 -202
c17 -63 16 -105 -3 -105 -8 0 -18 8 -23 18 -13 24 -25 110 -17 122 14 22 31 8
43 -35z"/>
<path d="M4510 7727 c-20 -10 -26 -23 -32 -67 -4 -30 -14 -74 -22 -98 -15 -42
-15 -43 13 -75 25 -27 36 -32 71 -31 34 1 49 8 81 40 42 41 50 64 21 64 -13 0
-22 16 -35 68 -19 72 -40 112 -60 112 -7 0 -23 -6 -37 -13z m28 -191 c-2 -13
-11 -22 -25 -24 -23 -3 -31 12 -13 23 6 3 10 25 11 48 l1 42 14 -34 c8 -18 14
-43 12 -55z"/>
<path d="M4239 7685 c-52 -28 -74 -86 -60 -160 16 -85 85 -120 161 -83 43 22
76 69 65 96 -5 13 -11 10 -35 -16 -31 -34 -69 -42 -89 -18 -10 12 -5 22 28 52
32 28 41 44 41 68 0 37 -7 49 -37 65 -28 14 -42 14 -74 -4z m61 -56 c0 -28
-19 -61 -31 -54 -13 9 -11 49 3 63 18 18 28 15 28 -9z"/>
<path d="M5552 7687 c-6 -7 -16 -33 -21 -57 -6 -25 -22 -81 -36 -125 -31 -99
-31 -126 -2 -153 36 -34 89 -30 122 9 32 39 20 59 -19 34 -41 -27 -41 -3 3
146 27 94 36 138 29 147 -14 16 -63 16 -76 -1z"/>
<path d="M5282 7645 c-36 -30 -72 -100 -72 -139 0 -98 117 -143 195 -75 45 39
37 53 -16 27 -38 -18 -42 -18 -65 -3 -31 20 -27 36 11 46 86 24 113 119 44
154 -40 21 -63 19 -97 -10z m79 -67 c-12 -31 -41 -45 -41 -20 0 10 7 28 16 41
21 29 39 14 25 -21z"/>
<path d="M3645 7519 c-22 -10 -47 -19 -56 -19 -8 0 -26 -11 -38 -24 -19 -20
-23 -35 -22 -80 0 -61 10 -87 49 -128 36 -39 101 -40 131 -2 14 18 26 24 40
19 35 -11 79 21 92 65 10 32 10 43 0 53 -10 9 -15 8 -26 -7 -8 -10 -16 -23
-18 -29 -7 -22 -26 6 -53 76 -28 73 -42 98 -53 96 -3 0 -24 -9 -46 -20z m22
-123 c26 -63 24 -86 -5 -86 -24 0 -52 59 -52 111 0 61 28 48 57 -25z"/>
<path d="M3286 7458 l-26 -23 19 -41 19 -42 -26 -13 c-33 -18 -55 -72 -46
-113 17 -78 76 -146 128 -146 10 0 34 16 53 35 25 25 41 34 55 30 13 -5 29 4
54 29 30 30 35 41 32 73 -3 41 -30 54 -36 18 -5 -25 -22 -46 -32 -40 -7 4
-106 173 -135 229 -15 29 -30 30 -59 4z m68 -195 c37 -65 42 -91 21 -99 -21
-8 -47 23 -65 77 -13 38 -9 69 9 69 5 0 21 -21 35 -47z"/>
<path d="M5903 7421 c-40 -25 -83 -98 -83 -140 0 -24 9 -42 34 -67 29 -29 41
-34 79 -34 34 0 53 6 74 25 l28 24 -50 -6 c-42 -4 -53 -2 -69 16 -25 27 -7 52
32 45 35 -6 89 27 98 61 20 79 -64 123 -143 76z m97 -50 c0 -15 -30 -41 -46
-41 -18 0 -18 15 2 34 17 18 44 21 44 7z"/>
<path d="M6169 7292 c-19 -21 -56 -55 -83 -77 -44 -37 -48 -44 -42 -69 4 -16
21 -42 38 -58 25 -23 39 -28 80 -28 27 0 59 5 70 11 20 11 21 12 4 24 -14 10
-15 18 -7 33 5 10 19 51 29 90 21 77 20 78 -29 99 -24 10 -29 8 -60 -25z m-4
-84 c-17 -61 -28 -78 -50 -78 -33 0 -37 11 -10 32 14 11 25 24 25 30 0 9 28
37 38 38 2 0 0 -10 -3 -22z"/>
<path d="M3060 7201 c-28 -8 -70 -64 -70 -93 0 -55 79 -161 130 -173 29 -6 81
22 105 58 20 31 29 87 16 106 -12 19 -31 5 -31 -23 0 -29 -41 -69 -63 -60 -21
8 -21 33 -2 58 24 32 18 74 -14 107 -31 31 -32 31 -71 20z m40 -94 c0 -24 -3
-28 -10 -17 -13 20 -13 63 0 55 6 -3 10 -21 10 -38z"/>
<path d="M6280 7045 c-66 -86 -119 -159 -116 -164 3 -5 20 -14 37 -22 34 -13
39 -10 84 54 12 17 15 17 50 -7 21 -15 42 -26 47 -26 29 0 85 39 119 85 52 68
52 102 2 146 -21 18 -37 36 -36 40 3 9 -45 49 -58 49 -4 0 -62 -70 -129 -155z
m175 35 c15 -24 -54 -120 -87 -120 -24 0 -17 34 17 80 35 48 57 61 70 40z"/>
<path d="M2747 7092 c-24 -26 -21 -49 8 -68 24 -16 27 -16 45 1 25 23 25 47 2
68 -24 22 -35 21 -55 -1z"/>
<path d="M2815 7007 l-27 -22 84 -88 c46 -48 90 -87 99 -87 9 0 31 13 48 29
32 30 40 66 21 102 -16 28 -30 23 -30 -11 0 -49 -31 -38 -91 35 -30 36 -59 65
-66 65 -7 0 -24 -10 -38 -23z"/>
<path d="M6572 6919 c-48 -35 -72 -74 -72 -117 0 -37 35 -82 64 -82 16 0 24
-8 31 -32 14 -45 52 -65 102 -53 48 12 52 39 6 43 -18 2 -33 8 -33 14 0 5 29
40 65 77 36 37 65 73 65 79 0 6 -12 19 -26 28 -14 10 -39 30 -56 46 -42 39
-90 38 -146 -3z m138 -53 c0 -18 -98 -108 -113 -103 -48 15 23 117 82 117 20
0 31 -5 31 -14z"/>
<path d="M2687 6892 c-10 -10 -17 -24 -17 -30 0 -7 -6 -12 -13 -12 -20 0 -47
-33 -47 -56 0 -19 158 -174 178 -174 14 0 42 35 42 52 0 9 -27 39 -60 68 -62
54 -76 86 -39 92 35 5 47 33 25 57 -24 26 -48 27 -69 3z"/>
<path d="M4018 6815 c-15 -9 -29 -27 -33 -44 -5 -24 -19 -36 -78 -66 -99 -50
-156 -94 -271 -204 -227 -220 -400 -488 -522 -808 -89 -234 -119 -408 -111
-646 7 -231 35 -339 157 -607 222 -486 635 -845 1210 -1050 19 -7 99 -14 177
-17 l142 -5 6 -27 c10 -51 22 -197 18 -227 -6 -38 -44 -54 -132 -54 -175 0
-504 -55 -589 -99 -90 -47 -152 -124 -152 -190 0 -49 72 -119 167 -164 290
-134 1120 -172 1560 -72 126 29 269 115 314 188 43 71 6 144 -105 206 -108 61
-387 121 -562 121 -74 0 -146 24 -166 54 -12 17 -9 136 3 198 l11 56 62 12
c33 6 128 34 210 62 125 42 152 49 173 39 38 -18 60 -13 98 20 41 36 43 52 13
121 l-22 51 29 23 c16 12 40 26 54 29 77 19 286 198 396 340 130 166 225 350
295 570 73 231 92 335 92 525 1 190 -17 282 -95 491 -25 67 -122 255 -136 263
-4 3 -29 -15 -56 -39 -40 -37 -50 -42 -64 -32 -23 17 -101 103 -142 157 -132
175 -293 348 -372 401 -32 21 -61 39 -63 39 -3 0 -25 14 -49 30 -24 17 -48 30
-54 30 -15 0 -24 39 -11 55 31 37 -173 124 -380 160 -99 17 -275 19 -387 4
-106 -14 -117 -17 -103 -34 9 -11 8 -21 -6 -43 -25 -43 -13 -90 36 -137 43
-42 51 -65 22 -65 -20 0 -52 31 -71 67 -6 12 -27 34 -46 49 l-36 27 -37 -30
c-20 -16 -53 -35 -72 -43 -19 -8 -37 -16 -40 -19 -10 -11 -135 -69 -175 -81
-89 -27 -138 -89 -133 -168 4 -63 40 -89 123 -87 53 1 60 3 86 35 23 27 29 44
29 83 0 105 60 143 156 99 21 -11 81 -24 133 -31 124 -16 161 -33 161 -75 0
-17 -4 -35 -8 -41 -15 -20 -74 -56 -149 -91 -147 -67 -176 -122 -119 -232 27
-53 21 -74 -44 -139 -74 -74 -79 -104 -25 -152 20 -17 47 -34 60 -37 26 -6 49
-36 38 -48 -19 -19 -168 1 -233 31 -19 9 -56 18 -81 21 -42 4 -50 1 -87 -32
-115 -104 -46 -306 100 -293 37 3 52 11 77 38 17 18 34 42 37 51 8 27 21 22
39 -16 17 -35 47 -53 99 -58 31 -3 33 -5 108 -148 l40 -74 -22 -18 c-12 -10
-35 -18 -51 -18 -41 0 -43 -14 -6 -43 86 -65 117 -206 67 -297 -66 -118 -219
-164 -341 -102 -181 91 -178 335 6 427 l59 30 -116 16 c-144 21 -172 30 -243
81 -62 44 -248 261 -305 354 -43 71 -44 137 -7 239 22 58 25 80 20 135 -12
127 -9 162 20 223 30 64 34 99 13 116 -11 9 -22 3 -54 -31 -23 -24 -48 -52
-56 -63 -24 -31 -19 -7 6 28 37 53 173 209 235 268 107 104 283 222 301 204 9
-9 -39 -44 -59 -45 -9 0 -28 -11 -42 -24 -24 -22 -25 -28 -15 -58 6 -18 14
-37 19 -42 4 -4 34 7 66 26 117 70 210 116 278 138 99 32 119 51 71 70 -13 5
-27 13 -30 19 -6 9 -41 -2 -148 -44 -10 -4 -18 -3 -18 2 0 5 27 22 60 38 34
16 66 35 72 42 16 20 -15 49 -94 89 -58 29 -71 32 -93 22 -19 -8 -31 -8 -50 0
-31 14 -24 15 -57 -3z m-518 -765 c0 -5 -4 -10 -10 -10 -5 0 -10 5 -10 10 0 6
5 10 10 10 6 0 10 -4 10 -10z m-20 -27 c0 -14 -19 -38 -25 -32 -8 8 5 39 16
39 5 0 9 -3 9 -7z m-30 -53 c0 -5 -4 -10 -10 -10 -5 0 -10 5 -10 10 0 6 5 10
10 10 6 0 10 -4 10 -10z m-20 -40 c0 -5 -4 -10 -10 -10 -5 0 -10 5 -10 10 0 6
5 10 10 10 6 0 10 -4 10 -10z m-48 -91 c-16 -35 -38 -84 -49 -109 -11 -25 -24
-55 -28 -68 -4 -13 -9 -22 -11 -19 -7 6 34 117 73 195 44 89 55 90 15 1z
m1828 36 c0 -8 -5 -24 -12 -35 -10 -16 -9 -23 11 -44 13 -14 32 -28 43 -32 24
-7 23 -34 -1 -34 -11 0 -36 20 -57 45 -20 25 -44 45 -53 45 -22 0 -66 -46 -80
-82 -12 -31 -32 -36 -51 -13 -11 14 -7 22 26 56 34 34 144 106 167 108 4 1 7
-6 7 -14z m-1950 -426 c0 -6 8 -8 19 -4 30 9 45 -40 33 -114 -5 -34 -5 -83 -1
-109 12 -71 10 -106 -4 -126 -20 -27 -52 -12 -76 35 -20 38 -29 119 -13 119 4
0 7 21 7 48 1 71 15 162 26 162 5 0 9 -5 9 -11z m2214 -133 c8 -17 27 -44 44
-60 l31 -29 103 8 c57 5 126 9 153 10 28 2 74 10 104 19 30 9 57 16 59 16 3 0
2 -19 0 -43 -5 -39 -15 -69 -54 -152 -20 -42 -42 -158 -37 -192 2 -15 9 -48
14 -73 13 -58 -3 -105 -65 -195 -45 -66 -51 -84 -61 -183 -5 -56 -15 -73 -85
-158 -25 -30 -49 -74 -62 -116 -13 -41 -42 -94 -75 -138 -29 -40 -53 -82 -53
-94 0 -12 9 -39 19 -59 17 -33 17 -39 4 -52 -8 -8 -25 -18 -38 -21 -73 -18
-105 26 -87 116 19 91 15 167 -14 245 -14 39 -32 90 -40 115 -8 25 -19 53 -24
62 -6 10 -10 24 -10 32 0 42 -133 116 -211 116 -14 0 -46 7 -70 16 -24 8 -56
13 -71 10 -18 -4 -30 0 -35 9 -7 12 -42 15 -173 17 -151 3 -165 5 -168 21 -2
11 5 27 16 38 27 24 36 87 30 211 -5 96 -6 101 -34 123 -24 20 -27 27 -18 42
9 15 27 19 96 21 l86 3 -14 46 c-15 49 -17 111 -5 153 10 36 58 64 137 79 155
29 221 42 259 53 42 11 273 26 313 19 14 -2 28 -15 36 -35z m-2101 -973 c60
-92 118 -166 207 -265 l75 -83 -63 57 c-102 94 -200 218 -256 327 -27 52 -9
35 37 -36z m527 -238 c76 -75 95 -80 186 -55 41 11 94 20 118 20 53 0 62 -16
51 -86 -6 -40 -3 -47 24 -74 25 -25 37 -30 79 -30 90 0 100 -14 52 -75 -16
-20 -32 -46 -36 -57 -9 -28 34 -69 94 -89 45 -15 47 -17 47 -55 l0 -39 -54 3
c-62 3 -246 62 -311 100 -25 14 -88 56 -140 93 -52 37 -113 80 -135 96 -22 15
-48 29 -58 29 -22 2 -87 36 -87 46 0 4 4 9 9 12 4 3 6 37 3 76 -5 79 9 127 42
140 33 13 57 2 116 -55z m1755 -1202 c49 -15 79 -32 71 -40 -3 -3 -55 14 -111
37 -11 5 -33 13 -50 19 l-30 11 35 -6 c19 -3 58 -12 85 -21z m115 -147 c0 -19
-58 -67 -114 -94 -97 -49 -196 -64 -428 -67 -120 -2 -218 -1 -218 1 0 16 47
84 58 84 7 0 45 -9 84 -20 54 -15 103 -20 195 -20 68 0 124 4 128 10 3 5 -19
29 -50 52 l-55 43 157 7 c86 4 161 10 167 12 27 11 76 5 76 -8z m-1381 -32
l34 -5 -37 -38 c-20 -20 -36 -42 -36 -49 0 -16 -10 -15 -84 4 -95 24 -246 81
-246 93 0 7 323 3 369 -5z m371 -89 c18 -19 32 -36 29 -38 -7 -6 -409 10 -415
16 -8 8 20 15 152 37 169 28 194 27 234 -15z"/>
<path d="M4770 4682 c0 -56 12 -72 56 -72 24 0 33 5 38 22 4 18 -4 31 -37 60
-23 20 -45 37 -49 38 -5 0 -8 -22 -8 -48z"/>
<path d="M6925 6761 c-3 -6 1 -13 8 -18 8 -4 24 -27 36 -50 23 -46 55 -73 87
-73 32 0 34 8 11 46 -44 72 -78 104 -107 104 -16 0 -31 -4 -35 -9z"/>
<path d="M6853 6707 c-59 -41 -152 -122 -152 -134 -1 -7 9 -24 22 -38 l23 -27
49 44 c90 80 125 96 125 58 0 -11 -3 -20 -7 -20 -5 0 -32 -22 -60 -49 -61 -55
-69 -92 -30 -129 28 -26 88 -30 107 -7 18 22 -2 44 -23 26 -11 -9 -17 -8 -28
5 -11 13 -8 19 22 42 62 48 99 90 99 112 0 21 -94 141 -108 139 -4 0 -21 -10
-39 -22z"/>
<path d="M2456 6628 c-25 -35 -46 -71 -46 -81 0 -58 94 -157 149 -157 14 0 41
9 59 20 25 15 32 27 32 50 0 22 5 30 18 30 23 0 60 38 62 65 4 37 0 53 -18 75
-22 28 -48 19 -30 -9 6 -10 8 -26 5 -35 -8 -21 -21 -15 -106 53 -35 28 -67 51
-71 51 -4 0 -28 -28 -54 -62z m97 -74 c49 -38 63 -62 48 -77 -25 -25 -121 50
-121 94 0 28 21 23 73 -17z"/>
<path d="M2193 6473 c-5 -12 20 -41 93 -109 l99 -93 -110 30 c-174 46 -161 46
-180 8 -13 -23 -16 -49 -13 -92 4 -50 9 -64 32 -84 33 -28 67 -30 90 -4 17 19
16 20 -28 39 -32 15 -47 28 -52 47 -3 14 -5 28 -3 29 2 2 73 -14 158 -35 85
-21 162 -39 172 -39 21 0 55 58 42 70 -4 4 -68 62 -141 129 -73 66 -138 121
-143 121 -5 0 -13 -7 -16 -17z"/>
<path d="M7005 6412 c-60 -33 -99 -85 -90 -122 4 -14 18 -38 33 -53 23 -24 33
-28 67 -24 22 2 55 10 73 18 26 11 36 11 50 1 47 -34 68 -25 32 13 -22 23 -22
26 -7 43 19 21 22 64 7 92 -11 21 -75 60 -98 60 -9 0 -39 -13 -67 -28z m125
-62 c0 -4 -13 -22 -30 -40 -34 -36 -110 -56 -110 -28 0 21 28 44 80 66 44 19
60 20 60 2z"/>
<path d="M7230 6191 c-147 -78 -177 -98 -183 -123 -14 -50 52 -108 108 -94 29
7 34 26 6 26 -10 0 -24 6 -30 14 -14 17 8 34 119 91 86 44 130 73 130 85 0 5
-10 20 -22 33 l-23 24 -105 -56z"/>
<path d="M4230 4883 c-25 -32 -22 -62 12 -156 20 -55 56 -97 84 -97 7 0 20 8
29 17 39 38 0 208 -57 247 -31 22 -43 20 -68 -11z"/>
<path d="M2636 2879 c-17 -14 -26 -30 -26 -50 0 -34 6 -36 34 -10 24 21 81 37
90 23 6 -9 -38 -68 -131 -174 -35 -40 -63 -77 -63 -84 0 -7 10 -25 23 -40 l23
-26 145 60 c79 33 152 63 162 66 22 7 33 34 19 48 -9 9 -24 6 -59 -9 -27 -12
-81 -35 -121 -52 l-73 -30 23 30 c13 16 49 62 81 101 31 39 57 76 57 82 0 18
-50 63 -83 75 -42 16 -71 13 -101 -10z"/>
<path d="M6772 2817 c-12 -13 -22 -29 -22 -35 0 -17 -6 -15 -47 13 -41 27 -47
26 -68 -15 l-14 -28 67 -49 c91 -68 212 -147 215 -142 16 19 37 55 37 61 0 4
-31 29 -70 54 -45 30 -70 54 -70 65 0 27 10 24 76 -21 33 -22 67 -40 77 -40
25 0 77 53 77 78 0 28 -50 86 -62 74 -6 -6 -6 -18 2 -32 22 -42 -4 -42 -66 0
-67 46 -101 50 -132 17z"/>
<path d="M6580 2580 l-21 -30 31 -39 c17 -21 38 -56 45 -77 24 -71 89 -84 141
-28 29 30 34 43 34 84 0 51 -12 69 -34 51 -10 -9 -30 -2 -82 29 -38 22 -74 40
-81 40 -6 0 -21 -13 -33 -30z m148 -144 c-3 -22 -28 -35 -28 -15 0 7 -12 23
-27 34 -15 13 -23 27 -19 33 11 18 77 -28 74 -52z"/>
<path d="M2823 2487 c-50 -26 -93 -80 -93 -117 0 -27 55 -90 78 -90 7 0 12 -7
12 -15 0 -9 11 -27 25 -40 28 -29 85 -34 105 -10 16 19 5 34 -20 28 -13 -3
-22 1 -26 12 -5 12 11 35 57 81 l63 64 -54 55 c-62 62 -81 67 -147 32z m107
-61 c0 -18 -88 -98 -103 -93 -37 12 -8 68 48 93 39 17 55 17 55 0z"/>
<path d="M6357 2472 c-30 -33 -15 -72 28 -72 43 0 59 44 27 73 -24 22 -35 21
-55 -1z"/>
<path d="M6424 2395 c-15 -24 -15 -26 15 -63 38 -49 107 -112 124 -113 48 -5
87 31 87 80 0 44 -13 66 -33 58 -10 -3 -13 -14 -10 -31 9 -43 -21 -31 -83 34
-31 33 -63 60 -70 60 -8 0 -21 -11 -30 -25z"/>
<path d="M3031 2227 l-80 -92 25 -22 c14 -13 29 -23 34 -23 5 0 33 29 62 65
29 36 58 65 63 65 6 0 15 -10 20 -22 12 -27 43 -30 58 -6 15 23 -6 68 -33 68
-11 0 -20 6 -20 14 0 7 -11 21 -25 30 -24 16 -25 15 -104 -77z"/>
<path d="M6272 2270 c-12 -5 -25 -16 -28 -25 -4 -8 -11 -15 -18 -15 -6 -1 -24
-11 -39 -24 l-29 -23 78 -97 c42 -53 82 -96 89 -96 6 0 21 10 33 23 l21 22
-54 68 c-30 38 -55 75 -55 83 0 31 37 11 79 -41 50 -63 77 -74 115 -50 32 21
43 58 27 92 -13 29 -35 26 -39 -5 -2 -12 -6 -22 -8 -22 -3 0 -31 27 -62 60
-58 61 -69 66 -110 50z"/>
<path d="M3342 2234 c-37 -26 -23 -74 23 -74 43 0 59 44 27 73 -23 21 -22 21
-50 1z"/>
<path d="M3278 2148 c-14 -26 -21 -36 -65 -104 -40 -60 -41 -86 -7 -113 32
-25 64 -27 105 -5 38 19 32 40 -10 36 -17 -1 -31 2 -31 8 0 9 58 99 71 110 19
17 18 45 -2 67 -28 29 -45 29 -61 1z"/>
<path d="M6020 2090 c-14 -11 -30 -20 -37 -20 -21 0 -53 -52 -53 -86 0 -45 33
-117 65 -142 41 -32 78 -28 119 13 21 21 45 35 60 35 49 0 83 82 53 125 -12
15 -15 16 -23 4 -5 -8 -9 -21 -9 -29 0 -8 -7 -16 -15 -17 -9 -2 -30 23 -55 67
-44 76 -61 85 -105 50z m43 -113 c29 -48 30 -77 3 -77 -19 0 -56 70 -56 105 0
38 19 27 53 -28z"/>
<path d="M3475 2031 c-30 -13 -90 -81 -105 -118 -11 -28 -10 -37 6 -64 37 -63
120 -84 166 -43 25 24 14 32 -35 27 -31 -4 -46 -1 -56 11 -23 27 -6 46 41 46
48 0 98 38 98 75 0 44 -72 84 -115 66z m65 -66 c0 -16 -47 -51 -57 -42 -9 10
26 57 42 57 8 0 15 -7 15 -15z"/>
<path d="M3691 1974 c-12 -19 -21 -41 -21 -47 0 -7 -16 -45 -35 -86 -19 -40
-35 -80 -35 -89 1 -32 48 -72 84 -72 25 0 79 51 67 63 -8 8 -15 7 -23 -1 -16
-16 -38 -15 -38 1 0 24 49 131 65 143 10 7 14 18 10 24 -4 6 -1 25 6 42 11 27
10 32 -6 44 -30 23 -52 16 -74 -22z"/>
<path d="M3886 1948 c-20 -29 -20 -37 2 -61 15 -19 15 -20 0 -14 -19 7 -32 -6
-43 -43 -4 -14 -18 -48 -31 -77 -30 -65 -30 -94 -1 -121 38 -36 78 -38 115 -7
18 15 32 33 32 40 0 23 -20 28 -41 9 -15 -13 -22 -15 -31 -6 -9 9 -9 18 4 40
8 15 23 52 33 82 16 49 16 55 2 64 -13 8 -12 12 9 29 29 22 31 48 6 70 -25 23
-38 21 -56 -5z"/>
<path d="M5393 1931 c-103 -48 -78 -141 50 -191 54 -21 87 -55 87 -90 0 -18
-49 -31 -71 -20 -22 12 -24 32 -6 60 10 17 9 22 -3 30 -21 13 -24 13 -54 -11
-36 -28 -36 -81 0 -114 65 -61 214 -4 214 81 0 70 -34 104 -139 139 -61 20
-86 54 -59 82 9 9 24 13 32 10 15 -6 19 -13 32 -56 4 -11 8 -10 24 4 23 21 25
43 6 67 -20 27 -66 31 -113 9z"/>
<path d="M5740 1938 c-14 -5 -40 -11 -58 -13 -57 -4 -60 -17 -20 -103 20 -42
54 -117 75 -166 21 -49 43 -91 49 -93 6 -2 23 6 37 17 26 21 26 22 11 58 -9
20 -18 42 -21 48 -2 7 11 17 30 23 40 13 47 26 47 82 0 48 -19 95 -53 132 -27
28 -55 33 -97 15z m46 -73 c21 -32 32 -115 15 -115 -13 0 -61 100 -61 125 0
24 28 17 46 -10z"/>
<path d="M4992 1837 c-26 -28 -27 -51 -7 -216 l15 -123 -30 -28 c-36 -34 -37
-49 -5 -84 30 -33 68 -34 100 -1 29 28 29 24 10 189 -12 102 -13 131 -3 143
10 12 9 17 -5 24 -9 6 -17 22 -17 36 0 23 2 25 35 19 42 -8 44 2 9 38 -33 33
-73 34 -102 3z m8 -403 c0 -8 -5 -12 -10 -9 -6 4 -8 11 -5 16 9 14 15 11 15
-7z"/>
<path d="M4062 1775 c-43 -36 -76 -107 -68 -149 14 -73 102 -107 165 -64 36
24 43 45 13 40 -9 -2 -29 -6 -43 -9 -16 -3 -32 1 -42 12 -25 24 -21 30 25 41
32 7 48 18 65 43 29 43 29 56 -2 86 -32 33 -75 32 -113 0z m78 -50 c0 -14 -8
-29 -20 -35 -16 -9 -20 -8 -20 5 0 18 22 55 32 55 5 0 8 -11 8 -25z"/>
<path d="M4335 1752 c-6 -4 -16 -25 -23 -48 -7 -23 -23 -58 -37 -78 -42 -62
-29 -108 34 -127 34 -10 44 -9 85 12 25 12 54 31 63 41 16 18 16 19 -4 24 -21
6 -33 52 -33 128 0 18 -5 37 -12 44 -13 13 -57 16 -73 4z m5 -147 c0 -38 -3
-45 -20 -45 -16 0 -18 3 -11 18 6 9 12 29 16 45 8 40 15 33 15 -18z"/>
<path d="M4738 1691 c-27 -24 -32 -36 -36 -87 -5 -76 9 -110 53 -131 63 -30
121 12 132 95 5 34 12 45 41 62 24 15 32 24 25 31 -8 8 -18 7 -34 -2 -20 -10
-25 -9 -34 6 -36 63 -94 74 -147 26z m81 -33 c-1 -7 3 -25 11 -40 12 -26 9
-59 -9 -88 -25 -37 -52 60 -32 113 10 27 34 39 30 15z"/>
</g>
</svg>
